HIERARCHY
ROOT mixamorig:Hips
{
	OFFSET -0.000007 99.791939 0.000048
	CHANNELS 6 Xposition Yposition Zposition Xrotation Yrotation Zrotation
	JOINT mixamorig:Spine
	{
		OFFSET -0.000008 9.923462 -1.227335
		CHANNELS 3 Xrotation Yrotation Zrotation
		JOINT mixamorig:Spine1
		{
			OFFSET -0.001162 11.645439 -1.422341
			CHANNELS 3 Xrotation Yrotation Zrotation
			JOINT mixamorig:Spine2
			{
				OFFSET -0.001082 13.360199 -1.626459
				CHANNELS 3 Xrotation Yrotation Zrotation
				JOINT mixamorig:Neck
				{
					OFFSET -0.001294 15.032486 0.792904
					CHANNELS 3 Xrotation Yrotation Zrotation
					JOINT mixamorig:Head
					{
						OFFSET -0.000902 10.321838 3.142429
						CHANNELS 3 Xrotation Yrotation Zrotation
						JOINT mixamorig:HeadTop_End
						{
							OFFSET -0.001464 18.474670 6.636400
							CHANNELS 3 Xrotation Yrotation Zrotation
							End Site
							{
								OFFSET -0.001724 19.630463 0.000000
							}
						}
					}
				}
				JOINT mixamorig:LeftShoulder
				{
					OFFSET 6.105025 9.110947 0.705547
					CHANNELS 3 Xrotation Yrotation Zrotation
					JOINT mixamorig:LeftArm
					{
						OFFSET 12.655060 -0.264816 -2.600928
						CHANNELS 3 Xrotation Yrotation Zrotation
						JOINT mixamorig:LeftForeArm
						{
							OFFSET 27.404680 0.002457 -0.000007
							CHANNELS 3 Xrotation Yrotation Zrotation
							JOINT mixamorig:LeftHand
							{
								OFFSET 27.614456 0.002457 0.000007
								CHANNELS 3 Xrotation Yrotation Zrotation
								JOINT mixamorig:LeftHandThumb1
								{
									OFFSET 3.789009 -2.166824 3.002973
									CHANNELS 3 Xrotation Yrotation Zrotation
									JOINT mixamorig:LeftHandThumb2
									{
										OFFSET 3.675636 -2.121704 2.122010
										CHANNELS 3 Xrotation Yrotation Zrotation
										JOINT mixamorig:LeftHandThumb3
										{
											OFFSET 3.394531 -1.959473 1.959746
											CHANNELS 3 Xrotation Yrotation Zrotation
											JOINT mixamorig:LeftHandThumb4
											{
												OFFSET 2.679504 -1.546753 1.546951
												CHANNELS 3 Xrotation Yrotation Zrotation
												End Site
												{
													OFFSET 2.400604 -1.530380 1.964751
												}
											}
										}
									}
								}
								JOINT mixamorig:LeftHandIndex1
								{
									OFFSET 12.266647 -0.230743 2.822040
									CHANNELS 3 Xrotation Yrotation Zrotation
									JOINT mixamorig:LeftHandIndex2
									{
										OFFSET 3.891968 0.000336 0.000037
										CHANNELS 3 Xrotation Yrotation Zrotation
										JOINT mixamorig:LeftHandIndex3
										{
											OFFSET 3.415161 0.000305 -0.000010
											CHANNELS 3 Xrotation Yrotation Zrotation
											JOINT mixamorig:LeftHandIndex4
											{
												OFFSET 3.077995 0.000275 -0.000009
												CHANNELS 3 Xrotation Yrotation Zrotation
												End Site
												{
													OFFSET 3.077988 0.000259 0.000131
												}
											}
										}
									}
								}
								JOINT mixamorig:LeftHandMiddle1
								{
									OFFSET 12.775536 0.001129 0.000014
									CHANNELS 3 Xrotation Yrotation Zrotation
									JOINT mixamorig:LeftHandMiddle2
									{
										OFFSET 3.613968 0.000320 0.000000
										CHANNELS 3 Xrotation Yrotation Zrotation
										JOINT mixamorig:LeftHandMiddle3
										{
											OFFSET 3.459763 0.000305 -0.000028
											CHANNELS 3 Xrotation Yrotation Zrotation
											JOINT mixamorig:LeftHandMiddle4
											{
												OFFSET 3.680191 0.000320 0.000031
												CHANNELS 3 Xrotation Yrotation Zrotation
												End Site
												{
													OFFSET 3.680191 0.000351 -0.004814
												}
											}
										}
									}
								}
								JOINT mixamorig:LeftHandRing1
								{
									OFFSET 12.147018 0.011063 -2.216636
									CHANNELS 3 Xrotation Yrotation Zrotation
									JOINT mixamorig:LeftHandRing2
									{
										OFFSET 3.601181 0.000320 0.000033
										CHANNELS 3 Xrotation Yrotation Zrotation
										JOINT mixamorig:LeftHandRing3
										{
											OFFSET 3.307320 0.000305 -0.000023
											CHANNELS 3 Xrotation Yrotation Zrotation
											JOINT mixamorig:LeftHandRing4
											{
												OFFSET 3.660118 0.000320 0.000000
												CHANNELS 3 Xrotation Yrotation Zrotation
												End Site
												{
													OFFSET 3.660103 0.000229 0.005616
												}
											}
										}
									}
								}
								JOINT mixamorig:LeftHandPinky1
								{
									OFFSET 10.908218 -0.225174 -4.725837
									CHANNELS 3 Xrotation Yrotation Zrotation
									JOINT mixamorig:LeftHandPinky2
									{
										OFFSET 4.136658 0.000351 0.001166
										CHANNELS 3 Xrotation Yrotation Zrotation
										JOINT mixamorig:LeftHandPinky3
										{
											OFFSET 2.594826 0.000244 -0.001180
											CHANNELS 3 Xrotation Yrotation Zrotation
											JOINT mixamorig:LeftHandPinky4
											{
												OFFSET 2.923874 0.000244 0.000018
												CHANNELS 3 Xrotation Yrotation Zrotation
												End Site
												{
													OFFSET 2.923851 0.000275 -0.003346
												}
											}
										}
									}
								}
							}
						}
					}
				}
				JOINT mixamorig:RightShoulder
				{
					OFFSET -6.106495 9.109970 0.705565
					CHANNELS 3 Xrotation Yrotation Zrotation
					JOINT mixamorig:RightArm
					{
						OFFSET -12.655020 -0.267136 -2.600890
						CHANNELS 3 Xrotation Yrotation Zrotation
						JOINT mixamorig:RightForeArm
						{
							OFFSET -27.404675 -0.002365 0.000019
							CHANNELS 3 Xrotation Yrotation Zrotation
							JOINT mixamorig:RightHand
							{
								OFFSET -27.614464 -0.002396 0.000031
								CHANNELS 3 Xrotation Yrotation Zrotation
								JOINT mixamorig:RightHandThumb1
								{
									OFFSET -3.788620 -2.167480 3.002977
									CHANNELS 3 Xrotation Yrotation Zrotation
									JOINT mixamorig:RightHandThumb2
									{
										OFFSET -3.675247 -2.122314 2.122009
										CHANNELS 3 Xrotation Yrotation Zrotation
										JOINT mixamorig:RightHandThumb3
										{
											OFFSET -3.394188 -1.960129 1.959755
											CHANNELS 3 Xrotation Yrotation Zrotation
											JOINT mixamorig:RightHandThumb4
											{
												OFFSET -2.679230 -1.547195 1.546953
												CHANNELS 3 Xrotation Yrotation Zrotation
												End Site
												{
													OFFSET -2.398781 -1.531693 1.965949
												}
											}
										}
									}
								}
								JOINT mixamorig:RightHandIndex1
								{
									OFFSET -12.266594 -0.232895 2.822051
									CHANNELS 3 Xrotation Yrotation Zrotation
									JOINT mixamorig:RightHandIndex2
									{
										OFFSET -3.891968 -0.000336 0.000040
										CHANNELS 3 Xrotation Yrotation Zrotation
										JOINT mixamorig:RightHandIndex3
										{
											OFFSET -3.415161 -0.000305 -0.000006
											CHANNELS 3 Xrotation Yrotation Zrotation
											JOINT mixamorig:RightHandIndex4
											{
												OFFSET -3.077988 -0.000275 0.000006
												CHANNELS 3 Xrotation Yrotation Zrotation
												End Site
												{
													OFFSET -3.077980 0.000229 -0.008454
												}
											}
										}
									}
								}
								JOINT mixamorig:RightHandMiddle1
								{
									OFFSET -12.775528 -0.001114 0.000025
									CHANNELS 3 Xrotation Yrotation Zrotation
									JOINT mixamorig:RightHandMiddle2
									{
										OFFSET -3.613968 -0.000320 0.000005
										CHANNELS 3 Xrotation Yrotation Zrotation
										JOINT mixamorig:RightHandMiddle3
										{
											OFFSET -3.459763 -0.000305 -0.000025
											CHANNELS 3 Xrotation Yrotation Zrotation
											JOINT mixamorig:RightHandMiddle4
											{
												OFFSET -3.680191 -0.000320 0.000034
												CHANNELS 3 Xrotation Yrotation Zrotation
												End Site
												{
													OFFSET -3.680168 -0.000031 0.012581
												}
											}
										}
									}
								}
								JOINT mixamorig:RightHandRing1
								{
									OFFSET -12.147003 0.008942 -2.216624
									CHANNELS 3 Xrotation Yrotation Zrotation
									JOINT mixamorig:RightHandRing2
									{
										OFFSET -3.601196 -0.000320 0.000037
										CHANNELS 3 Xrotation Yrotation Zrotation
										JOINT mixamorig:RightHandRing3
										{
											OFFSET -3.307312 -0.000290 -0.000019
											CHANNELS 3 Xrotation Yrotation Zrotation
											JOINT mixamorig:RightHandRing4
											{
												OFFSET -3.660118 -0.000320 0.000002
												CHANNELS 3 Xrotation Yrotation Zrotation
												End Site
												{
													OFFSET -3.660110 0.000107 0.002180
												}
											}
										}
									}
								}
								JOINT mixamorig:RightHandPinky1
								{
									OFFSET -10.908173 -0.227081 -4.725826
									CHANNELS 3 Xrotation Yrotation Zrotation
									JOINT mixamorig:RightHandPinky2
									{
										OFFSET -4.136642 -0.000366 0.000029
										CHANNELS 3 Xrotation Yrotation Zrotation
										JOINT mixamorig:RightHandPinky3
										{
											OFFSET -2.594841 -0.000229 -0.000036
											CHANNELS 3 Xrotation Yrotation Zrotation
											JOINT mixamorig:RightHandPinky4
											{
												OFFSET -2.923874 -0.000259 0.000021
												CHANNELS 3 Xrotation Yrotation Zrotation
												End Site
												{
													OFFSET -2.923820 0.000336 -0.012876
												}
											}
										}
									}
								}
							}
						}
					}
				}
			}
		}
	}
	JOINT mixamorig:LeftUpLeg
	{
		OFFSET 9.124458 -6.656387 -0.055378
		CHANNELS 3 Xrotation Yrotation Zrotation
		JOINT mixamorig:LeftLeg
		{
			OFFSET 0.244681 -40.595421 -0.515619
			CHANNELS 3 Xrotation Yrotation Zrotation
			JOINT mixamorig:LeftFoot
			{
				OFFSET -0.244669 -42.047928 -2.059156
				CHANNELS 3 Xrotation Yrotation Zrotation
				JOINT mixamorig:LeftToeBase
				{
					OFFSET 0.373535 -7.208548 13.966561
					CHANNELS 3 Xrotation Yrotation Zrotation
					JOINT mixamorig:LeftToe_End
					{
						OFFSET -0.142059 -0.175224 9.997455
						CHANNELS 3 Xrotation Yrotation Zrotation
						End Site
						{
							OFFSET -0.142060 -0.175223 9.997459
						}
					}
				}
			}
		}
	}
	JOINT mixamorig:RightUpLeg
	{
		OFFSET -9.124448 -6.656403 -0.055378
		CHANNELS 3 Xrotation Yrotation Zrotation
		JOINT mixamorig:RightLeg
		{
			OFFSET -0.244680 -40.595459 -0.514290
			CHANNELS 3 Xrotation Yrotation Zrotation
			JOINT mixamorig:RightFoot
			{
				OFFSET 0.244670 -42.047859 -2.060535
				CHANNELS 3 Xrotation Yrotation Zrotation
				JOINT mixamorig:RightToeBase
				{
					OFFSET -0.373535 -7.208539 13.966558
					CHANNELS 3 Xrotation Yrotation Zrotation
					JOINT mixamorig:RightToe_End
					{
						OFFSET 0.141798 -0.175009 9.997463
						CHANNELS 3 Xrotation Yrotation Zrotation
						End Site
						{
							OFFSET 0.141798 -0.175009 9.997467
						}
					}
				}
			}
		}
	}
}
MOTION
Frames: 4
Frame Time: 0.033333
-0.458376 97.735916 0.280977 -2.975315 -7.512201 -2.481485 9.009384 2.510080 3.356908 2.445533 0.340319 -3.191589 2.464735 0.274354 -3.182706 -4.704944 0.334956 4.686454 -10.598306 8.583592 -2.384016 -0.000000 0.000000 -0.000000 0.841651 -6.272925 0.523831 2.516375 -22.440057 -73.996425 0.001510 -16.428917 0.000223 -18.710506 0.437565 3.536501 8.211821 6.841864 9.344114 4.720192 17.609295 1.459237 -0.579594 1.574938 2.538705 0.000003 -0.000001 0.000003 0.742130 3.115128 -26.800243 0.232170 1.776501 -14.898326 0.247031 1.832145 -15.370472 -0.000001 -0.000001 0.000000 0.796704 3.220676 -27.792509 0.305755 2.033520 -17.110534 0.305335 2.032169 -17.098853 -0.000000 0.000001 -0.000001 0.883171 3.379406 -29.290604 0.393101 2.297510 -19.425379 0.393019 2.298241 -19.423735 0.000000 0.000001 -0.000000 3.041720 7.030780 -30.359675 0.450519 -1.629572 -21.413645 0.476248 2.547295 -21.396780 0.000001 -0.000003 -0.000002 1.693408 27.765498 4.707350 2.845633 7.877045 76.065802 -0.002111 23.047024 0.000430 -29.085988 3.528228 0.129936 -1.429035 -15.085456 -5.624648 5.585940 -19.311636 -0.940037 -1.273782 0.137190 -2.094874 -0.000001 0.000003 -0.000001 0.498998 -2.590441 21.788524 0.528170 -2.661628 22.428917 0.206441 -1.684368 13.963309 0.000001 -0.000000 -0.000000 0.588428 -2.803523 23.692857 0.627472 -2.890687 24.478466 0.305217 -2.040684 17.000742 0.000002 0.000000 -0.000003 0.712434 -3.070303 26.108028 0.758713 -3.162219 26.966594 0.455852 -2.480385 20.821243 -0.000001 0.000000 -0.000003 0.821413 -3.282931 28.075744 0.867563 -3.367412 28.880806 0.599204 -2.828753 23.909357 -0.000001 0.000001 -0.000001 -6.569161 9.155591 15.835054 16.651004 -1.325250 -4.056705 -4.343547 22.165779 -8.500105 -0.543191 -0.000001 -0.000002 0.000000 -0.000001 0.000000 -9.960387 3.963330 2.963140 21.969321 -2.415151 -0.835013 -9.124553 -5.029398 0.847051 -0.000119 -0.000003 0.000175 -0.000000 -0.000000 -0.000000 
-0.117785 97.769287 0.350607 -2.851914 -7.106503 -2.235003 8.979203 2.291202 2.997512 2.340528 0.316832 -3.152710 2.357536 0.253098 -3.144911 -4.815269 0.294580 4.732714 -9.912970 8.365422 -1.819329 0.000000 -0.000000 0.000000 0.825770 -6.104147 0.503713 2.809018 -24.848548 -73.543133 0.001503 -16.521104 0.000217 -18.046232 -1.400283 4.889347 8.211819 6.841865 9.344109 4.720187 17.609295 1.459239 -0.579595 1.574940 2.538707 0.000001 0.000003 0.000008 0.722968 3.076986 -26.445651 0.228305 1.761900 -14.773112 0.245016 1.824862 -15.307829 0.000000 0.000001 0.000003 0.780972 3.190727 -27.511456 0.299857 2.014250 -16.943336 0.302461 2.022820 -17.017693 0.000000 -0.000001 0.000000 0.871883 3.359247 -29.098600 0.384560 2.273207 -19.211736 0.388763 2.286121 -19.316998 0.000001 0.000003 0.000001 3.026710 7.022597 -30.237019 0.439657 -1.657740 -21.163879 0.470753 2.533247 -21.271521 -0.000000 0.000002 -0.000001 1.703136 27.768844 4.662897 3.099121 7.040083 77.033360 -0.002144 23.417160 0.000439 -30.081202 1.317716 1.555476 -1.429036 -15.085449 -5.624643 5.585942 -19.311641 -0.940036 -1.273782 0.137196 -2.094870 0.000000 -0.000003 0.000001 0.536612 -2.682519 22.606328 0.541547 -2.693771 22.715222 0.212620 -1.708958 14.171435 0.000000 0.000001 -0.000002 0.623035 -2.880977 24.390537 0.639325 -2.916564 24.712608 0.311132 -2.059905 17.165968 0.000000 -0.000000 -0.000000 0.742114 -3.130031 26.656703 0.767857 -3.180094 27.131846 0.460835 -2.493412 20.935918 0.000000 0.000000 -0.000001 0.846220 -3.328915 28.505713 0.873931 -3.378924 28.989215 0.602946 -2.837160 23.984990 -0.000000 -0.000002 0.000001 -6.304277 7.560345 15.230680 16.707078 -0.403484 -4.567442 -4.714117 21.738040 -7.977432 -0.928266 -0.000006 0.000004 0.000000 -0.000001 0.000000 -9.761173 3.741523 2.100259 21.598463 -2.217227 -0.333541 -9.019392 -5.070579 1.323127 -0.000019 0.000003 0.000014 -0.000000 0.000001 -0.000000 
0.202162 97.796982 0.344860 -2.743482 -6.547768 -1.973454 8.868694 2.084621 2.936846 2.274403 0.292068 -3.152375 2.289697 0.229435 -3.145474 -4.945166 0.176456 4.921658 -9.140396 7.992767 -1.286350 0.000000 -0.000000 -0.000000 0.810171 -5.930124 0.507281 3.433811 -28.443795 -72.899955 0.001441 -15.698746 0.000201 -15.717182 -3.771310 6.698528 8.211819 6.841862 9.344115 4.720188 17.609298 1.459238 -0.579595 1.574935 2.538704 0.000003 -0.000001 0.000001 0.683439 2.996359 -25.699709 0.218318 1.723553 -14.444353 0.239836 1.805749 -15.143453 0.000000 0.000001 0.000001 0.747350 3.125390 -26.900820 0.290453 1.983198 -16.674198 0.297996 2.008114 -16.890044 0.000002 0.000001 0.000000 0.845833 3.312114 -28.650994 0.377389 2.252462 -19.029431 0.385335 2.276340 -19.231134 0.000001 0.000000 -0.000004 2.987407 7.000960 -29.915054 0.434994 -1.669932 -21.055824 0.468382 2.527154 -21.217298 -0.000000 0.000001 0.000001 1.712097 27.751776 4.608751 3.660572 9.348990 76.499259 -0.002063 22.549364 0.000420 -27.928570 1.219884 3.146361 -1.429034 -15.085455 -5.624645 5.585943 -19.311641 -0.940036 -1.273778 0.137196 -2.094868 -0.000000 0.000000 0.000000 0.577303 -2.778004 23.459779 0.557367 -2.731213 23.049471 0.220323 -1.739158 14.427422 -0.000001 0.000000 0.000001 0.661005 -2.963138 25.134992 0.652609 -2.945180 24.971972 0.317987 -2.081965 17.355782 -0.000000 -0.000000 -0.000001 0.775781 -3.196018 27.266137 0.776846 -3.197579 27.293713 0.465648 -2.505938 21.046115 0.000000 -0.000001 0.000001 0.875627 -3.382357 29.007684 0.878763 -3.387628 29.071122 0.605340 -2.842519 24.033238 0.000000 -0.000000 0.000000 -6.826929 6.595892 15.017785 17.722674 -0.137448 -5.638888 -5.678193 20.513544 -6.022163 -0.753031 -0.000007 -0.000003 0.000000 -0.000002 0.000000 -9.750875 2.243808 1.280591 21.613703 -1.853667 -0.344839 -9.067610 -4.426416 1.530305 -0.000021 -0.000004 0.000004 -0.000000 -0.000001 -0.000000 
0.536644 97.793335 0.293939 -2.646376 -5.812794 -1.866065 8.497860 1.903028 3.239404 2.307016 0.266306 -3.180263 2.321160 0.204154 -3.173603 -5.162018 0.004265 5.147733 -8.269788 7.448425 -0.722774 -0.000000 -0.000000 0.000000 0.796473 -5.775526 0.526992 5.248561 -33.386047 -71.006128 0.001406 -15.384834 0.000207 -10.249753 -5.889724 8.692958 8.211815 6.841864 9.344114 4.720193 17.609295 1.459237 -0.579600 1.574940 2.538709 0.000004 -0.000002 0.000003 0.630237 2.883307 -24.661783 0.197799 1.641787 -13.745227 0.228934 1.765026 -14.793850 0.000000 0.000001 0.000001 0.697921 3.026120 -25.979506 0.271338 1.918182 -16.112046 0.288476 1.976580 -16.616831 0.000002 0.000001 0.000000 0.801120 3.229045 -27.866887 0.362755 2.209606 -18.653680 0.378249 2.255919 -19.051617 0.000001 -0.000001 -0.000002 2.904239 6.954210 -29.230358 0.425740 -1.694404 -20.839430 0.463652 2.514961 -21.108763 0.000001 -0.000001 -0.000001 1.718605 27.627113 4.525359 5.621110 15.104058 74.450899 -0.002012 22.062295 0.000376 -20.733476 2.657046 3.737715 -1.429036 -15.085458 -5.624649 5.585938 -19.311636 -0.940033 -1.273781 0.137194 -2.094872 -0.000000 0.000001 0.000001 0.614938 -2.863080 24.224895 0.577961 -2.779030 23.477464 0.230767 -1.779222 14.767480 0.000000 -0.000001 -0.000002 0.699085 -3.042840 25.861558 0.670971 -2.984247 25.327154 0.328049 -2.113856 17.630458 0.000001 0.000000 0.000001 0.814093 -3.269168 27.945731 0.791489 -3.225728 27.554650 0.474221 -2.528068 21.241327 0.000001 0.000004 -0.000000 0.913930 -3.450402 29.650442 0.889625 -3.407043 29.254264 0.611981 -2.857343 24.166922 0.000000 0.000000 0.000000 -9.098975 6.809295 14.705443 21.276236 -0.948647 -6.106343 -7.699674 20.016631 -1.994861 -0.191047 -0.000007 0.000002 0.000000 -0.000000 -0.000000 -9.777972 0.827018 0.529770 21.657145 -2.131628 -0.182712 -9.113503 -3.492929 1.780160 -0.491474 -0.000007 0.000005 -0.000000 -0.000000 -0.000000 
